<?xml version="1.0" encoding="iso-8859-1"?>
<!-- Generator: Adobe Illustrator 18.1.1, SVG Export Plug-In . SVG Version: 6.00 Build 0)  -->
<svg version="1.1" id="Capa_1" xmlns="http://www.w3.org/2000/svg" xmlns:xlink="http://www.w3.org/1999/xlink" x="0px" y="0px"
	 viewBox="0 0 32 32" style="enable-background:new 0 0 32 32;" xml:space="preserve">
<g>
	<g>
		<path style="fill:#010002;" d="M32,12.001l-6-6v4h-2.001V4h-16v6.001H6v-4l-6,6.001l6,5.999v-4h1.999V20h6.06
			c0.498,4.499,4.308,7.998,8.941,8c4.971-0.002,8.998-4.029,9-9c-0.001-1.975-0.645-3.794-1.721-5.277L32,12.001z M9.999,18V6h12
			v4.059c-4.172,0.462-7.479,3.77-7.94,7.941H9.999z M23,25.883c-3.801-0.009-6.876-3.084-6.885-6.883
			c0.009-3.801,3.084-6.876,6.885-6.884c3.799,0.008,6.874,3.083,6.883,6.884C29.874,22.799,26.799,25.874,23,25.883z"/>
		<polygon style="fill:#010002;" points="22,19 20,17 18,19 22,23 28,17 26,15 		"/>
	</g>
</g>
<g>
</g>
<g>
</g>
<g>
</g>
<g>
</g>
<g>
</g>
<g>
</g>
<g>
</g>
<g>
</g>
<g>
</g>
<g>
</g>
<g>
</g>
<g>
</g>
<g>
</g>
<g>
</g>
<g>
</g>
</svg>
