<?xml version="1.0" ?><!DOCTYPE svg  PUBLIC '-//W3C//DTD SVG 1.1//EN'  'http://www.w3.org/Graphics/SVG/1.1/DTD/svg11.dtd'><svg xmlns="http://www.w3.org/2000/svg" xmlns:xlink="http://www.w3.org/1999/xlink" xmlns:serif="http://www.serif.com/" width="100%" height="100%" viewBox="0 0 64 64" version="1.1" xml:space="preserve" style="fill-rule:evenodd;clip-rule:evenodd;stroke-linejoin:round;stroke-miterlimit:2;"><path d="M18,38L46,38C46,38 46,44 46,44C46,44.798 46.474,45.519 47.206,45.836C47.938,46.152 48.789,46.004 49.37,45.457L62.37,33.235C62.777,32.853 63.005,32.318 63,31.76C62.995,31.202 62.757,30.671 62.343,30.296L49.343,18.518C48.757,17.987 47.912,17.851 47.189,18.172C46.466,18.492 46,19.209 46,20L46,26C46,26 18,26 18,26C18,26 18,20 18,20C18,19.202 17.526,18.481 16.794,18.164C16.062,17.848 15.211,17.996 14.63,18.543L1.63,30.765C1.223,31.147 0.995,31.682 1,32.24C1.005,32.798 1.243,33.329 1.657,33.704L14.657,45.482C15.243,46.013 16.088,46.149 16.811,45.828C17.534,45.508 18,44.791 18,44L18,38ZM16,34C14.895,34 14,34.895 14,36L14,39.489C14,39.489 5.949,32.195 5.949,32.195C5.949,32.195 14,24.625 14,24.625C14,24.625 14,28 14,28C14,29.105 14.895,30 16,30L48,30C49.105,30 50,29.105 50,28L50,24.511C50,24.511 58.051,31.805 58.051,31.805C58.051,31.805 50,39.375 50,39.375C50,39.375 50,36 50,36C50,34.895 49.105,34 48,34L16,34Z"/></svg>