<?xml version="1.0" ?><svg height="32" id="icon" viewBox="0 0 32 32" width="32" xmlns="http://www.w3.org/2000/svg"><defs><style>
      .cls-1 {
        fill: none;
      }
    </style></defs><polygon points="12 6 8 6 8 2 6 2 6 6 2 6 2 8 6 8 6 12 8 12 8 8 12 8 12 6"/><rect height="2" width="4" x="16" y="6"/><path d="M24,6V8h4v4h2V8a2,2,0,0,0-2-2Z"/><rect height="4" width="2" x="6" y="16"/><path d="M8,28V24H6v4a2,2,0,0,0,2,2h4V28Z"/><rect height="4" width="2" x="28" y="16"/><rect height="2" width="4" x="16" y="28"/><path d="M28,24v4H24v2h4a2,2,0,0,0,2-2V24Z"/><rect class="cls-1" data-name="&lt;Transparent Rectangle&gt;" height="32" id="_Transparent_Rectangle_" width="32"/></svg>